<svg xmlns="http://www.w3.org/2000/svg" width="57.787" height="57.782" viewBox="0 0 57.787 57.782">
  <path id="Union_4" data-name="Union 4" d="M-16191.4-848.21a4.746,4.746,0,0,1-4.741-4.741v-18.867a16.974,16.974,0,0,1-11.348-4.99,17.44,17.44,0,0,1-1.2-1.336l-6.518,6.521a1.132,1.132,0,0,1-.8.33h-2.073v2.069a1.13,1.13,0,0,1-1.129,1.132h-2.069v2.069a1.128,1.128,0,0,1-1.128,1.128h-2.073v2.069a1.125,1.125,0,0,1-1.128,1.128h-2.139v5.136h5.865l12.118-12.118a1.124,1.124,0,0,1,1.6,0,1.127,1.127,0,0,1,0,1.593l-12.452,12.452a1.116,1.116,0,0,1-.794.33h-7.462a1.128,1.128,0,0,1-1.129-1.128v-7.324a1.131,1.131,0,0,1,.33-.8l.069-.069a1.15,1.15,0,0,1,.8-.33h2.068v-2.069a1.129,1.129,0,0,1,1.129-1.128h2.073v-2.069a1.131,1.131,0,0,1,1.128-1.132h2.069v-2.069a1.128,1.128,0,0,1,1.128-1.128h2.733l6.464-6.464a17.13,17.13,0,0,1,2.521-20.969,17.118,17.118,0,0,1,19.633-3.25,8.576,8.576,0,0,1,5.214-1.76,8.631,8.631,0,0,1,8.619,8.623v11.9l1.479,1.474a1.125,1.125,0,0,1,.33.8v30.243a4.746,4.746,0,0,1-4.741,4.741Zm8.086-28.6a16.98,16.98,0,0,1-10.57,4.941v18.92a2.483,2.483,0,0,0,2.48,2.481h14.448a2.486,2.486,0,0,0,2.484-2.481v-29.779l-3.983-3.984A17.024,17.024,0,0,1-16183.313-876.808Zm-22.578-22.578a14.846,14.846,0,0,0,0,20.981,14.79,14.79,0,0,0,10.488,4.338,14.794,14.794,0,0,0,10.493-4.338,14.745,14.745,0,0,0,4.346-10.493,14.736,14.736,0,0,0-4.346-10.488,15.036,15.036,0,0,0-2.6-2.081,6.343,6.343,0,0,0-1.3,2.493,4.983,4.983,0,0,1,2.2,1.279,4.979,4.979,0,0,1,1.462,3.531,4.979,4.979,0,0,1-1.462,3.531,4.977,4.977,0,0,1-3.531,1.458,4.978,4.978,0,0,1-3.532-1.458,5,5,0,0,1,0-7.063,4.984,4.984,0,0,1,2.566-1.365,8.54,8.54,0,0,1,1.552-3.474,14.768,14.768,0,0,0-5.857-1.2A14.734,14.734,0,0,0-16205.892-899.385Zm20.207-3.576a17.207,17.207,0,0,1,2.371,1.98,17.012,17.012,0,0,1,4.973,11.2.244.244,0,0,1,.033.024l2.028,2.033v-9.645a6.373,6.373,0,0,0-6.366-6.366A6.332,6.332,0,0,0-16185.685-902.962Zm-6.383,6.863a2.74,2.74,0,0,0,0,3.87,2.739,2.739,0,0,0,3.87,0,2.72,2.72,0,0,0,.8-1.935,2.72,2.72,0,0,0-.8-1.935,2.777,2.777,0,0,0-.811-.558v2.493a1.132,1.132,0,0,1-1.133,1.128,1.125,1.125,0,0,1-1.124-1.128v-2.485A2.667,2.667,0,0,0-16192.067-896.1Zm3.092,41.8a1.128,1.128,0,0,1-1.128-1.128,1.128,1.128,0,0,1,1.128-1.128h9.6a1.128,1.128,0,0,1,1.128,1.128,1.128,1.128,0,0,1-1.128,1.128Zm-17.89-15.674a1.135,1.135,0,0,1-.334-.8,1.135,1.135,0,0,1,.334-.8,1.126,1.126,0,0,1,.8-.33,1.123,1.123,0,0,1,.794.33,1.135,1.135,0,0,1,.334.8,1.135,1.135,0,0,1-.334.8,1.133,1.133,0,0,1-.794.33A1.143,1.143,0,0,1-16206.865-869.977Zm8.688-8.9a1.131,1.131,0,0,1-.786-1.389,1.129,1.129,0,0,1,1.385-.79s.017,0,.021.008a1.125,1.125,0,0,1,.773,1.393,1.129,1.129,0,0,1-1.083.819A1.155,1.155,0,0,1-16198.177-878.877Zm-4.566-2.676a10.394,10.394,0,0,1,0-14.684,1.131,1.131,0,0,1,1.6,0,1.13,1.13,0,0,1,0,1.6,8.132,8.132,0,0,0,0,11.49,1.13,1.13,0,0,1,0,1.6,1.124,1.124,0,0,1-.8.33A1.127,1.127,0,0,1-16202.743-881.553Z" transform="translate(16230.001 905.992)"/>
</svg>
