<svg xmlns="http://www.w3.org/2000/svg" width="120.021" height="135.023" viewBox="0 0 120.021 135.023">
  <path id="Union_1" data-name="Union 1" d="M-14500.869,134.615a1.758,1.758,0,0,1-1.76-1.76v-5.28h-52.809v5.28a1.761,1.761,0,0,1-1.764,1.76h-7.04a1.76,1.76,0,0,1-1.76-1.76V104.69a8.813,8.813,0,0,1,7.044-8.621V80.046a5.287,5.287,0,0,1,5.28-5.28h49.287a5.289,5.289,0,0,1,5.28,5.28V96.07a8.814,8.814,0,0,1,7.04,8.621v28.164a1.758,1.758,0,0,1-1.76,1.76Zm0-10.56a1.76,1.76,0,0,1,1.76,1.76v5.28h3.521v-14.08h-66.893v14.08h3.524v-5.28a1.757,1.757,0,0,1,1.756-1.76Zm-61.612-19.364v8.8h66.893v-8.8a5.287,5.287,0,0,0-5.28-5.28h-56.332A5.289,5.289,0,0,0-14562.481,104.69Zm51.049-21.124a5.287,5.287,0,0,1,5.279,5.284v7.04h3.524V80.046a1.764,1.764,0,0,0-1.761-1.76h-49.287a1.764,1.764,0,0,0-1.761,1.76V95.89h3.521V88.85a5.288,5.288,0,0,1,5.28-5.284h10.56a5.291,5.291,0,0,1,5.284,5.284v7.04h3.52V88.85a5.288,5.288,0,0,1,5.28-5.284Zm-12.32,5.284v7.04h14.08V88.85a1.763,1.763,0,0,0-1.76-1.76h-10.561A1.763,1.763,0,0,0-14523.753,88.85Zm-24.645,0v7.04h14.08V88.85a1.763,1.763,0,0,0-1.76-1.76h-10.56A1.764,1.764,0,0,0-14548.4,88.85Zm84.492,35.2v-10.56h-21.124v10.56h-3.52V97.65a1.763,1.763,0,0,1,1.76-1.76h24.645a1.764,1.764,0,0,1,1.764,1.76v26.4Zm-21.124-14.08h21.124V99.41h-21.124ZM-14479,106v-4h8v4Zm-.747-13.63V88.85h3.524V83.57h-5.28a1.761,1.761,0,0,1-1.431-.732,1.762,1.762,0,0,1-.242-1.584l3.521-10.564a1.759,1.759,0,0,1,1.672-1.2h7.04a1.76,1.76,0,0,1,1.673,1.2l3.52,10.56a1.76,1.76,0,0,1-.245,1.584,1.742,1.742,0,0,1-1.427.735h-5.28v5.28h3.521v3.52Zm.685-12.324h9.2l-2.346-7.04h-4.508Zm-47.821-15.4c-10.241-5.833-30.967-6.8-31.175-6.81a1.6,1.6,0,0,1-1.526-1.6V50.261a1.6,1.6,0,0,1,1.6-1.6,1.6,1.6,0,0,1,1.6,1.6v4.475c4.99.329,20.835,1.734,30.3,6.7,4.109-2.159,9.872-3.882,17.15-5.134l1.112-2.938a5.642,5.642,0,0,1-3.483-5.207,5.652,5.652,0,0,1,4.039-5.4V26.909a63.962,63.962,0,0,0-18.814-4.157,64.224,64.224,0,0,0-19.814,4.552,51.808,51.808,0,0,0-10.49,5.723v9.755a1.6,1.6,0,0,1-1.6,1.6,1.594,1.594,0,0,1-1.592-1.6V35.146l-19.47-8.7a1.6,1.6,0,0,1-.944-1.456,1.6,1.6,0,0,1,.944-1.456l24.285-10.86a1.6,1.6,0,0,1,2.107.805,1.6,1.6,0,0,1-.8,2.108l-21.028,9.4,15,6.707a1.615,1.615,0,0,1,.557-.757,54.163,54.163,0,0,1,11.83-6.583,65.878,65.878,0,0,1,20.97-4.79h.088a65.412,65.412,0,0,1,18.774,3.941V11.757l-18.818-8.416-20.553,9.192a1.593,1.593,0,0,1-2.108-.805,1.591,1.591,0,0,1,.806-2.1l21.208-9.484a1.577,1.577,0,0,1,1.3,0l52.307,23.389a1.6,1.6,0,0,1,.948,1.456,1.6,1.6,0,0,1-.944,1.456l-19.47,8.7v7.637a1.6,1.6,0,0,1-1.6,1.6,1.6,1.6,0,0,1-1.6-1.6V33.027a50.2,50.2,0,0,0-8.291-4.764V42.757a5.647,5.647,0,0,1,4.039,5.4,5.642,5.642,0,0,1-3.483,5.207l.769,2.031c3-.362,5.478-.56,6.967-.662V50.261a1.6,1.6,0,0,1,1.6-1.6,1.6,1.6,0,0,1,1.6,1.6V56.24a1.6,1.6,0,0,1-1.526,1.6c-.036,0-3.125.139-7.461.637l1.441,3.794a1.594,1.594,0,0,1-.179,1.471,1.594,1.594,0,0,1-1.313.692h-8.08a1.6,1.6,0,0,1-1.313-.692,1.6,1.6,0,0,1-.176-1.471l.94-2.481c-6.429,1.229-11.592,2.894-15.035,4.859a1.591,1.591,0,0,1-.786.209A1.59,1.59,0,0,1-14526.886,64.645Zm19.475-3.407h3.454l-1.728-4.548Zm-.718-13.078a2.444,2.444,0,0,0,2.444,2.444,2.444,2.444,0,0,0,2.444-2.444,2.446,2.446,0,0,0-2.444-2.444A2.446,2.446,0,0,0-14508.129,48.161Zm4.04-23.389a54.005,54.005,0,0,1,10.834,6.162,1.565,1.565,0,0,1,.557.757l15-6.707-26.393-11.8Z" transform="translate(14580.201 0.208)" stroke="#ada6a6" stroke-width="0.4"/>
</svg>
