<svg xmlns="http://www.w3.org/2000/svg" width="69" height="69" viewBox="0 0 69 69">
  <path id="Union_3" data-name="Union 3" d="M-15444.5-835.976l-17.039-17.035a1.35,1.35,0,0,1,0-1.907l.953-.953-3.1-3.093a24.244,24.244,0,0,1-31.2-2.623,24.238,24.238,0,0,1,0-34.3,24.234,24.234,0,0,1,34.3,0,24.237,24.237,0,0,1,2.623,31.2l3.1,3.1.953-.953a1.341,1.341,0,0,1,.949-.393,1.344,1.344,0,0,1,.953.393l17.035,17.039a6.72,6.72,0,0,1,0,9.525,6.7,6.7,0,0,1-4.759,1.977A6.722,6.722,0,0,1-15444.5-835.976Zm-8.463-12.272,10.37,10.37a4.039,4.039,0,0,0,5.716,0,4.039,4.039,0,0,0,0-5.716l-10.37-10.37Zm-5.716-5.716,3.813,3.809,5.716-5.716-3.813-3.809Zm-34.3-40.02a21.544,21.544,0,0,0,0,30.491,21.536,21.536,0,0,0,30.486,0,21.541,21.541,0,0,0,0-30.491,21.489,21.489,0,0,0-15.243-6.318A21.489,21.489,0,0,0-15492.98-893.984Zm32.393,32.4c-.314.319-.646.626-.98.926l2.888,2.887,1.906-1.907-2.887-2.887C-15459.961-862.233-15460.269-861.9-15460.588-861.587Zm-30.49-3.809a18.892,18.892,0,0,1,0-26.681,18.86,18.86,0,0,1,26.682,0,18.892,18.892,0,0,1,0,26.681,18.816,18.816,0,0,1-13.343,5.53A18.8,18.8,0,0,1-15491.078-865.4Zm1.907-24.775a16.19,16.19,0,0,0,0,22.868,16.158,16.158,0,0,0,22.867,0,16.19,16.19,0,0,0,0-22.868,16.122,16.122,0,0,0-11.436-4.739A16.109,16.109,0,0,0-15489.171-890.171Zm-1.946,12.876a1.347,1.347,0,0,1,1.347-1.346,1.348,1.348,0,0,1,1.351,1.346,1.351,1.351,0,0,1-1.351,1.35A1.35,1.35,0,0,1-15491.117-877.3Zm1.471-4.086a1.348,1.348,0,0,1-.844-1.708,13.275,13.275,0,0,1,3.226-5.175,13.375,13.375,0,0,1,9.529-3.946,1.347,1.347,0,0,1,1.347,1.346,1.347,1.347,0,0,1-1.347,1.346,10.7,10.7,0,0,0-7.623,3.156,10.607,10.607,0,0,0-2.579,4.14,1.349,1.349,0,0,1-1.275.913A1.337,1.337,0,0,1-15489.646-881.381Z" transform="translate(15501.998 902.999)"/>
</svg>
