<svg xmlns="http://www.w3.org/2000/svg" width="252.299" height="299.824" viewBox="0 0 252.299 299.824">
  <path id="Union_2" data-name="Union 2" d="M-14397.7,373.482a10.255,10.255,0,0,1-1.893-.424,1.914,1.914,0,0,1-.987-.673,1.711,1.711,0,0,1-.289-.991V291.6h-.143l-32.286,80.149a2.379,2.379,0,0,1-.6.848,3.153,3.153,0,0,1-1.133.6,8.583,8.583,0,0,1-1.773.355q-1.025.1-2.441.106a19.519,19.519,0,0,1-2.548-.143,9.172,9.172,0,0,1-1.77-.387,3.234,3.234,0,0,1-1.1-.6,1.9,1.9,0,0,1-.53-.779l-30.868-80.149h-.069v79.794a1.713,1.713,0,0,1-.293.991,1.925,1.925,0,0,1-1.02.673,11.434,11.434,0,0,1-1.9.424,20.185,20.185,0,0,1-2.99.179,19.577,19.577,0,0,1-2.916-.179,10.338,10.338,0,0,1-1.861-.424,1.711,1.711,0,0,1-.946-.673,1.868,1.868,0,0,1-.256-.991V287.142q0-2.972,1.583-4.247a5.484,5.484,0,0,1,3.52-1.276h7.479a16.815,16.815,0,0,1,4.024.428,8.742,8.742,0,0,1,3.023,1.345,7.809,7.809,0,0,1,2.152,2.336,16.524,16.524,0,0,1,1.514,3.326l26.2,66.343h.351l27.261-66.131a19.734,19.734,0,0,1,1.726-3.611,9.189,9.189,0,0,1,2.051-2.369,7,7,0,0,1,2.481-1.276,11.571,11.571,0,0,1,3.166-.391h7.837a6.435,6.435,0,0,1,2.05.322,4.144,4.144,0,0,1,1.656.991,5.093,5.093,0,0,1,1.115,1.7,6.471,6.471,0,0,1,.431,2.511v84.253a1.685,1.685,0,0,1-.292.991,1.932,1.932,0,0,1-1.021.673,11.381,11.381,0,0,1-1.86.424,19.418,19.418,0,0,1-2.953.179A19.763,19.763,0,0,1-14397.7,373.482Zm37.895-.245a5.009,5.009,0,0,1-3.081-1.1q-1.449-1.1-1.451-3.856V286.575q0-2.758,1.451-3.856a5.009,5.009,0,0,1,3.081-1.1h43.472a1.916,1.916,0,0,1,1.027.285,1.959,1.959,0,0,1,.742.921,7.041,7.041,0,0,1,.46,1.59,13.409,13.409,0,0,1,.18,2.372,12.474,12.474,0,0,1-.18,2.233,6.406,6.406,0,0,1-.46,1.557,2,2,0,0,1-.742.885,1.946,1.946,0,0,1-1.027.281h-35.825v28.745h30.727a1.767,1.767,0,0,1,1.026.318,2.609,2.609,0,0,1,.779.888,4.531,4.531,0,0,1,.46,1.557,16.559,16.559,0,0,1,.143,2.336,14.447,14.447,0,0,1-.143,2.193,4.434,4.434,0,0,1-.46,1.488,2,2,0,0,1-.779.815,2.142,2.142,0,0,1-1.026.249h-30.727v32.78h36.318a1.934,1.934,0,0,1,1.027.281,2.5,2.5,0,0,1,.815.885,4.31,4.31,0,0,1,.5,1.561,17.067,17.067,0,0,1,.143,2.369,15.974,15.974,0,0,1-.143,2.233,4.654,4.654,0,0,1-.5,1.59,2.374,2.374,0,0,1-.815.921,1.9,1.9,0,0,1-1.027.285Zm-96.74-100.75a31.621,31.621,0,0,1-12.548-9.017,38.534,38.534,0,0,1-7.377-14.683,76.009,76.009,0,0,1-2.423-20.177,69.7,69.7,0,0,1,2.636-19.819,41.311,41.311,0,0,1,7.913-15.147,35.028,35.028,0,0,1,13.188-9.624,46.623,46.623,0,0,1,18.466-3.385,47.049,47.049,0,0,1,17.75,3.063,32.115,32.115,0,0,1,12.581,8.948,38.031,38.031,0,0,1,7.486,14.544,72.739,72.739,0,0,1,2.46,19.852,71.443,71.443,0,0,1-2.639,20.177,42.2,42.2,0,0,1-7.878,15.29,34.322,34.322,0,0,1-13.151,9.694,46.6,46.6,0,0,1-18.462,3.388A47.445,47.445,0,0,1-14456.545,272.488Zm5.721-78.379a25.177,25.177,0,0,0-8.794,7.983,33.223,33.223,0,0,0-4.84,11.657,65.113,65.113,0,0,0-1.462,14.007,77.51,77.51,0,0,0,1.353,14.972,33.515,33.515,0,0,0,4.558,11.8,21.908,21.908,0,0,0,8.579,7.7q5.379,2.747,13.5,2.745a27.9,27.9,0,0,0,13.524-2.994,24.31,24.31,0,0,0,8.831-8.093,34.248,34.248,0,0,0,4.77-11.8,68.006,68.006,0,0,0,1.422-14.186,72,72,0,0,0-1.389-14.577,33.489,33.489,0,0,0-4.627-11.693,22.345,22.345,0,0,0-8.648-7.734,29.09,29.09,0,0,0-13.386-2.778A27.346,27.346,0,0,0-14450.824,194.108Zm-56.444,80.379a11.3,11.3,0,0,1-1.854-.428,1.915,1.915,0,0,1-1-.68,1.754,1.754,0,0,1-.285-1V231.461h-41.988v40.921a1.754,1.754,0,0,1-.285,1,1.914,1.914,0,0,1-1,.68,11.181,11.181,0,0,1-1.89.428,20.613,20.613,0,0,1-2.957.175,20.8,20.8,0,0,1-2.924-.175,11.258,11.258,0,0,1-1.927-.428,1.939,1.939,0,0,1-1-.68,1.761,1.761,0,0,1-.285-1V183.841a1.762,1.762,0,0,1,.285-1,1.914,1.914,0,0,1,1-.676,10.6,10.6,0,0,1,1.927-.428,20.207,20.207,0,0,1,2.924-.179,20.03,20.03,0,0,1,2.957.179,10.51,10.51,0,0,1,1.89.428,1.89,1.89,0,0,1,1,.676,1.754,1.754,0,0,1,.285,1V220.77h41.988V183.841a1.754,1.754,0,0,1,.285-1,1.891,1.891,0,0,1,1-.676,10.593,10.593,0,0,1,1.854-.428,19.986,19.986,0,0,1,3-.179,19.464,19.464,0,0,1,2.888.179,10.49,10.49,0,0,1,1.887.428,1.9,1.9,0,0,1,1,.676,1.761,1.761,0,0,1,.284,1v88.541a1.761,1.761,0,0,1-.284,1,1.922,1.922,0,0,1-1,.68,11.16,11.16,0,0,1-1.887.428,20.033,20.033,0,0,1-2.888.175A20.563,20.563,0,0,1-14507.269,274.487Zm58.879-108.7a45.26,45.26,0,0,1-6.817-1.861,33.148,33.148,0,0,1-5.025-2.27,13.553,13.553,0,0,1-2.822-2,5.058,5.058,0,0,1-1.17-2.1,12.209,12.209,0,0,1-.38-3.407,19.079,19.079,0,0,1,.139-2.515,5.98,5.98,0,0,1,.413-1.616,1.8,1.8,0,0,1,.688-.863,1.873,1.873,0,0,1,.965-.241,5.646,5.646,0,0,1,2.72,1.17,42.022,42.022,0,0,0,4.511,2.548,44.235,44.235,0,0,0,6.642,2.584,30.5,30.5,0,0,0,8.984,1.2,22.948,22.948,0,0,0,7.059-1.031,16.625,16.625,0,0,0,5.508-2.928,12.648,12.648,0,0,0,3.542-4.646,15.116,15.116,0,0,0,1.243-6.265,11.744,11.744,0,0,0-1.722-6.473,17.451,17.451,0,0,0-4.544-4.715,39.948,39.948,0,0,0-6.44-3.717q-3.612-1.689-7.4-3.443a80.458,80.458,0,0,1-7.368-3.889,31.181,31.181,0,0,1-6.4-5.026,23.348,23.348,0,0,1-4.58-6.78,22.571,22.571,0,0,1-1.755-9.328,23.379,23.379,0,0,1,2.028-9.95,20.563,20.563,0,0,1,5.647-7.332,25.229,25.229,0,0,1,8.6-4.511,36.258,36.258,0,0,1,10.776-1.55,35.047,35.047,0,0,1,5.954.519,40.638,40.638,0,0,1,5.647,1.374,31.4,31.4,0,0,1,4.715,1.93,11.967,11.967,0,0,1,2.72,1.722,5.176,5.176,0,0,1,.859,1.031,3.8,3.8,0,0,1,.347.965,10.117,10.117,0,0,1,.205,1.411c.047.552.069,1.261.069,2.135a20.809,20.809,0,0,1-.1,2.2,8.412,8.412,0,0,1-.311,1.616,1.988,1.988,0,0,1-.585.965,1.336,1.336,0,0,1-.862.311,5.538,5.538,0,0,1-2.372-.965q-1.623-.965-3.963-2.168a34.52,34.52,0,0,0-5.541-2.2,24.13,24.13,0,0,0-7.193-1,18.977,18.977,0,0,0-6.47,1,13.3,13.3,0,0,0-4.548,2.65,10.532,10.532,0,0,0-2.683,3.926,12.964,12.964,0,0,0-.9,4.818,11.616,11.616,0,0,0,1.722,6.4,17.546,17.546,0,0,0,4.58,4.752,40.554,40.554,0,0,0,6.5,3.783q3.65,1.722,7.438,3.48t7.435,3.853a30.982,30.982,0,0,1,6.506,4.96,22.64,22.64,0,0,1,4.613,6.744,22.21,22.21,0,0,1,1.755,9.193,25.818,25.818,0,0,1-2.307,11.152,23.974,23.974,0,0,1-6.4,8.3,27.716,27.716,0,0,1-9.639,5.128,40.054,40.054,0,0,1-11.945,1.722A42.715,42.715,0,0,1-14448.39,165.787Z" transform="translate(14565.156 -74.338)" stroke="rgba(0,0,0,0)" stroke-miterlimit="10" stroke-width="1"/>
</svg>
